PathFileType	4	(X/Y/Z)	path1_15_0-580.trc
DataRate	CameraRate	NumFrames	NumMarkers	Units	OrigDataRate	OrigDataStartFrame	OrigNumFrames
30	30	7	22	m	30	72	580
Frame#	Time	Hip			RHip			RKnee			RAnkle			RBigToe			RSmallToe			RHeel			LHip			LKnee			LAnkle			LBigToe			LSmallToe			LHeel			Neck			Head			Nose			RShoulder			RElbow			RWrist			LShoulder			LElbow			LWrist		
		X1	Y1	Z1	X2	Y2	Z2	X3	Y3	Z3	X4	Y4	Z4	X5	Y5	Z5	X6	Y6	Z6	X7	Y7	Z7	X8	Y8	Z8	X9	Y9	Z9	X10	Y10	Z10	X11	Y11	Z11	X12	Y12	Z12	X13	Y13	Z13	X14	Y14	Z14	X15	Y15	Z15	X16	Y16	Z16	X17	Y17	Z17	X18	Y18	Z18	X19	Y19	Z19	X20	Y20	Z20	X21	Y21	Z21	X22	Y22	Z22
73	2.433333333333333	2.488103127522296	0.8349668048662706	0.5414586938124498	2.491993282107073	0.8014306960705805	0.46359718327476723	2.492365633846469	0.45709388887245805	0.48378778912132303	2.541768331714783	0.09765668457378675	0.4965598473844076	2.3503065594938364	0.02492173388117709	0.45517853994128143	2.3912300637503336	0.022397986190534604	0.3981822066758164	2.587751832856418	0.032738036601829806	0.4966541047216212	2.4830516195715546	0.8021178460485048	0.625869261196722	2.490695470798639	0.4406267130032813	0.6046448720554367	2.5237610549765024	0.11384554400808677	0.6081169281894055	2.370137475530433	0.013415776157983138	0.6244960992129152	2.389538358965062	0.03065787025693979	0.6764765580759409	2.5673281377954873	0.04100527756632872	0.6058040666034914	2.450397262151749	1.4663695153642853	0.5542552473354139	2.409108857964692	1.7144090544671495	0.5013036356640922	2.310549474998466	1.6013006240888679	0.533436836829871	2.505405453148182	1.362641533849508	0.3877984403660639	2.5121565686951617	1.0686545667031966	0.3420486102648208	2.483973814912991	0.8390736047842694	0.3327965621501739	2.4554015429821288	1.3440437849151041	0.72160714266112	2.4887004318267336	1.067068206476263	0.7511342223779442	2.4814999149785946	0.8371806663537656	0.7529600435107069
74	2.466666666666667	2.4882033218685438	0.8348025227085616	0.5409554725224515	2.4924397000676195	0.8015746646819331	0.46333289801010247	2.4886033346369607	0.4586203472546243	0.47857062809329076	2.5429502927766507	0.09656933063843377	0.49818137501588555	2.35080258093855	0.024722758941652108	0.4549942669328346	2.3914986715579873	0.022237957549880765	0.39813002192953784	2.5879059155227857	0.03288538318978975	0.49740461426821975	2.4833516620864375	0.8020264247994733	0.6256012888079966	2.490174486589669	0.441266221919771	0.6059821246920909	2.523947737545084	0.11377986929711031	0.6083288019366512	2.371175056723501	0.01288359175956635	0.6255955746705162	2.393608688305421	0.029002302444265896	0.6773119841005535	2.5673619298663493	0.04073349167407028	0.6061205353818012	2.4506720838117495	1.466440080872777	0.5541634320769901	2.407946246774539	1.7140025116706419	0.5022311646085583	2.3105887720231553	1.601147316096644	0.5323878166442716	2.5054026605327233	1.3628828672987445	0.38756289505964114	2.5111674774655834	1.0687984372488513	0.34023718134747327	2.4844238377446866	0.8388334171108499	0.3328118660114201	2.4559504491473954	1.3443901265336606	0.7204123235974305	2.488985320761645	1.0669460535104807	0.7506554553857382	2.4816928250536443	0.8369172458989046	0.7529389949381355
75	2.5	2.4884578487307487	0.834597844191424	0.5405074219579367	2.4928850591785774	0.802284516056683	0.463031487613622	2.4858981103745177	0.4595908535676806	0.4746461912531144	2.5436994041274987	0.09604015466641082	0.4991524010174274	2.350977627159199	0.024769024123522727	0.45496080717225945	2.391285309965362	0.02225577236496269	0.39812935977097946	2.588133892001364	0.03293024129252398	0.4976632378628915	2.483925277625725	0.8025029636276703	0.6252976867389054	2.4893713607096606	0.44269614936998897	0.6081365163933304	2.5244276317375207	0.11373219078245332	0.6085233924088667	2.37226982261588	0.012750974671398513	0.627650838345078	2.395950184137949	0.028154118604853486	0.6775229522217394	2.5679721043957575	0.04018478342770374	0.6066446568345765	2.4510438517993665	1.4663582881103536	0.554048046577576	2.4058733652468693	1.7134147639359374	0.5031729788612006	2.3107144020583354	1.601087062548596	0.5314278536200604	2.505370272389163	1.3632747858739358	0.38692175822489094	2.510875002406811	1.0689014143886735	0.3390379864379524	2.4848613157146566	0.8384220561973736	0.33255595074196037	2.4571780703782746	1.3450249576400282	0.7186330488559589	2.4893907666299047	1.0669223931656562	0.7501799940411408	2.482223208565163	0.8367166642898389	0.7529041104487271
76	2.533333333333333	2.488785715191053	0.8343560062229991	0.5401422032770672	2.4932168127393606	0.803369995796812	0.46261571698431325	2.4849512331201704	0.45965279627725597	0.4728836288798963	2.5440365348604335	0.09589774398177195	0.49965197868832767	2.350795500967185	0.025042300224367528	0.4550620818239645	2.390636103265605	0.022425835670429373	0.3981735112468348	2.5882611983664146	0.03291735002080003	0.4972683149137124	2.4846472221155267	0.8033790698165931	0.6248900247189592	2.4883705119860453	0.44470230506704145	0.6108279935662614	2.5250179220333098	0.11370099666918948	0.608706240585031	2.3734671814428805	0.012727298615529826	0.630304462222073	2.3956456657039054	0.028460439710804676	0.677009622668555	2.568871813295656	0.03954859484544954	0.6073348801853495	2.4514181062331306	1.466164671993595	0.5539525653790154	2.4031045845780348	1.7124671213632827	0.5041838206291875	2.310885257488961	1.601110803561595	0.5305622603601511	2.5053066673426603	1.3637253048078126	0.38599820856447814	2.5109505214165364	1.0689783261495167	0.33806367486707545	2.485192307749635	0.8378348419000424	0.33205179892826864	2.4590587380791	1.3458509395032636	0.7161541960759594	2.489827697475647	1.0669968067017597	0.7497047962834977	2.4829377902257885	0.836597630126356	0.7527513025969684
77	2.566666666666667	2.489084855825466	0.8341058691915753	0.5398465710982732	2.4933074610365464	0.8044590430582668	0.4618845324596327	2.4857674144642954	0.45876749860753985	0.47336809289225706	2.5440030937014617	0.09591228841308932	0.4997609383013421	2.350358789516486	0.025358722604544606	0.455233222298199	2.389817482383192	0.022654445821888785	0.39824589297583657	2.5881866427542675	0.03288849744870058	0.4964149741003251	2.485289582961319	0.8042559631204204	0.6242308620571738	2.487319784479809	0.44673315702809946	0.6133403648604203	2.525459439317723	0.11366300869676303	0.6088217838957105	2.374594577072133	0.012459054329040847	0.6325593452195466	2.3936347044977833	0.0294397605746682	0.676109145682401	2.5696430482933477	0.038996263872473506	0.6080277393733835	2.4516904777075585	1.4659851924686202	0.5539370479781865	2.4004816447168635	1.7113991766354342	0.5050322588933011	2.3110370792892536	1.6011871094734988	0.5297372069105454	2.505191423177474	1.3640912108392407	0.3849755141802774	2.511009650502784	1.0690254353412154	0.3370136245687023	2.485384724460127	0.8371719643541122	0.33141284730036785	2.46119987716089	1.3466200212010555	0.7132028980710812	2.4901732815984863	1.0670980925166473	0.749192539857104	2.483591597487053	0.8364966199756755	0.7524032796383949
78	2.6	2.4892955374385206	0.8338988301842442	0.5395827898775347	2.493129938206049	0.8051658717607291	0.4607657244843992	2.4883207105851017	0.4569456852435701	0.4761793093889015	2.543722738070189	0.09588684091773075	0.4995129928280622	2.349866052827328	0.025487127722814654	0.45538483575012323	2.389137138688185	0.02282786398483432	0.3983201778467265	2.5880051726560676	0.03285517255158614	0.49574450942374576	2.4856295825573307	0.8047425919132386	0.6232404613419902	2.4863944846856367	0.44822296058993777	0.6149817549068236	2.525539131464296	0.11359963151986759	0.6087907179966886	2.3752143807303168	0.011842356753801733	0.6334058364460775	2.3918604034773834	0.030165081559051603	0.675314809685671	2.5699862091636834	0.03857754288574174	0.6084928070076611	2.4517941881768563	1.465923340819813	0.553972217824218	2.3992846511506936	1.7109865237854982	0.5049833868745613	2.3111149089996617	1.6013209082208975	0.5288939792706774	2.5050720116506917	1.3642907779184499	0.3840148582639091	2.5112846096306605	1.0689463638512822	0.3366187075051085	2.485481315638889	0.8366050109000897	0.3308064152504158	2.462920249817199	1.347033570331801	0.7105087426636026	2.4903502799966857	1.0671513901274845	0.7486014933367424	2.484003853347045	0.8363492850793395	0.7518696461223776
79	2.6333333333333333	2.4893990179799825	0.8338036433482314	0.5393184605507929	2.4928211785934034	0.8052819490366339	0.4595054277638383	2.492102047517042	0.45454718704518354	0.4807307007350618	2.5433985172122435	0.09571957990303528	0.4990203972772884	2.3495095306043376	0.025328711354554525	0.4554513661638154	2.388766426924108	0.022865075751242026	0.39838967869882824	2.5879222811910814	0.032776504112302894	0.49587625552636866	2.485599351453478	0.8046915335857888	0.6220476020950595	2.4857673353538443	0.44896251856550573	0.6155773720411208	2.525207735464465	0.11351038453097662	0.6085890398200817	2.374955891594476	0.01103064718680548	0.6324429123363703	2.3916901160920454	0.03001026605224354	0.674916793722678	2.5698857784452964	0.038269608176885066	0.6085666057035348	2.4517260400605987	1.4659915881439085	0.5539171480824229	2.4002667539426614	1.7117417570438351	0.503536155562487	2.3111155566124606	1.6015233227737755	0.5280416572711173	2.505062397434473	1.3643486434082046	0.3832278066379157	2.51225399472176	1.0686828873789789	0.33782658837763957	2.485565024520707	0.8362792700286232	0.3303633721173641	2.463683790123421	1.3469519668234038	0.7088678094955349	2.490342530855688	1.0671533217031064	0.7479334852576133	2.4841521365337385	0.8361748821985354	0.7512348261848527
